<?xml version="1.0" standalone="no"?>
<!DOCTYPE svg PUBLIC "-//W3C//DTD SVG 20010904//EN"
 "http://www.w3.org/TR/2001/REC-SVG-20010904/DTD/svg10.dtd">
<svg version="1.0" xmlns="http://www.w3.org/2000/svg"
 width="512.000000pt" height="456.000000pt" viewBox="0 0 512.000000 456.000000"
 preserveAspectRatio="xMidYMid meet">

<g transform="translate(0.000000,456.000000) scale(0.100000,-0.100000)"
fill="#000000" stroke="none">
<path d="M3092 4501 c-180 -63 -196 -72 -188 -114 19 -101 19 -111 -11 -146
l-29 -34 -105 12 c-57 7 -228 13 -379 14 l-275 2 -115 -32 c-220 -60 -280 -88
-459 -207 -185 -123 -364 -285 -433 -390 -46 -71 -98 -227 -98 -294 0 -128 79
-255 217 -349 98 -67 140 -111 214 -223 27 -41 66 -96 85 -122 l35 -46 -122
-307 -121 -307 -32 5 c-17 3 -62 13 -101 21 -135 30 -376 12 -508 -38 -374
-141 -612 -447 -657 -848 -18 -159 19 -364 96 -527 84 -179 260 -363 427 -447
306 -155 605 -156 907 -4 116 58 252 172 338 284 l23 30 67 -35 c66 -34 68
-34 216 -37 171 -4 194 0 201 31 9 35 -8 67 -64 122 -60 59 -64 75 -18 75 98
0 204 68 248 157 34 72 33 179 -3 255 l-26 56 121 114 c67 62 239 226 382 363
496 476 606 580 619 583 12 3 38 -51 51 -108 5 -21 0 -28 -37 -49 -102 -57
-183 -119 -260 -200 -130 -134 -199 -254 -254 -436 -25 -82 -28 -104 -27 -250
0 -130 4 -175 21 -242 92 -355 346 -626 688 -732 395 -122 816 -24 1087 253
153 156 248 336 288 546 16 85 16 249 0 325 -92 443 -401 751 -841 841 -114
23 -362 15 -470 -15 -41 -11 -78 -21 -82 -21 -7 0 -98 276 -98 297 0 6 30 13
67 16 37 4 95 17 129 29 55 20 65 21 91 9 l28 -14 -25 -8 c-14 -4 -39 -7 -55
-8 -65 -2 -103 -63 -49 -77 44 -11 175 3 264 30 47 13 102 27 123 31 20 3 46
16 58 28 32 34 80 130 77 152 -5 31 -220 162 -283 172 -31 5 -43 16 -91 84
-85 121 -67 113 -224 105 -74 -4 -166 -11 -204 -16 -104 -13 -130 6 -225 165
-49 83 -76 167 -91 290 -6 50 -18 124 -27 165 -25 120 -26 128 -19 155 8 32
29 32 81 0 22 -14 50 -25 62 -25 22 0 57 36 68 69 8 27 93 69 153 77 29 3 56
12 60 18 4 6 7 38 8 71 0 74 39 173 69 180 11 2 42 7 69 10 l48 7 -5 39 c-3
22 -25 79 -48 127 -56 113 -177 238 -287 296 -115 60 -161 60 -340 -3z m-447
-1143 c26 -71 44 -132 41 -136 -4 -3 -25 5 -48 18 -23 13 -116 50 -206 81 -91
32 -169 62 -174 67 -7 7 18 13 68 17 93 9 132 21 198 63 26 17 54 28 61 26 7
-3 34 -64 60 -136z m-415 -489 c208 -11 278 -22 262 -42 -5 -7 -34 -43 -64
-82 -31 -38 -81 -109 -112 -157 -54 -82 -59 -88 -92 -88 -32 0 -36 4 -70 73
-20 39 -65 123 -100 184 -35 62 -64 118 -64 124 0 7 9 9 23 5 12 -3 110 -11
217 -17z m820 -115 c69 -34 178 -85 242 -114 64 -28 119 -58 122 -65 3 -10
-13 -15 -62 -19 -110 -9 -585 -29 -615 -25 -29 4 -28 5 50 90 55 61 83 100 92
130 13 45 29 72 40 67 3 -2 62 -31 131 -64z m677 5 c43 -6 97 -19 121 -30 l43
-18 -27 -36 c-42 -56 -61 -55 -177 10 -56 31 -109 63 -117 71 -12 12 -8 14 32
14 26 0 82 -5 125 -11z m-2119 -242 c27 -32 172 -473 172 -524 0 -29 -45 -232
-61 -270 -5 -13 -12 -23 -16 -23 -5 1 -33 23 -63 51 -54 49 -124 99 -213 151
l-46 27 18 54 c10 29 53 161 96 293 43 131 79 242 82 247 6 11 19 9 31 -6z
m2010 -31 c26 -14 56 -31 67 -39 20 -15 20 -15 -5 -21 -98 -20 -97 -21 -114
31 -9 25 -16 48 -16 50 0 8 25 1 68 -21z m-133 -133 l37 -117 -84 -80 c-45
-44 -141 -137 -213 -206 -71 -69 -229 -220 -350 -335 -121 -116 -263 -251
-315 -301 -215 -207 -214 -206 -237 -183 -8 8 -3 41 19 123 17 61 34 125 37
141 l7 30 131 6 c146 6 169 14 151 55 -13 29 -78 73 -207 140 -210 110 -251
190 -177 347 36 78 149 238 269 382 l75 90 259 11 c142 6 326 11 410 12 l152
2 36 -117z m-1629 -139 c23 -39 25 -47 14 -80 -7 -20 -16 -32 -21 -27 -12 12
-49 122 -49 144 0 30 28 11 56 -37z m-446 -119 c-32 -97 -56 -154 -63 -152 -7
3 -11 11 -9 18 5 28 115 299 120 295 2 -3 -19 -75 -48 -161z m2820 -85 c158
-25 343 -108 467 -211 159 -130 262 -284 319 -474 25 -81 27 -106 28 -255 1
-133 -3 -179 -18 -235 -48 -176 -116 -295 -245 -429 -139 -143 -301 -237 -483
-281 -101 -24 -297 -30 -409 -11 -383 63 -700 357 -795 736 -27 112 -25 326 4
440 44 168 125 307 254 437 74 75 241 197 261 190 11 -3 47 -109 162 -471 52
-167 64 -193 100 -235 58 -65 63 -77 58 -142 -5 -54 -4 -58 29 -94 41 -45 110
-59 153 -31 34 22 65 74 65 109 0 61 -54 117 -113 117 -26 0 -56 29 -81 78
-49 97 -256 665 -256 702 0 51 316 88 500 60z m-3045 -90 c44 -11 83 -24 87
-28 6 -6 -25 -89 -218 -584 l-66 -167 -45 -22 c-49 -24 -83 -69 -83 -110 0
-64 89 -137 149 -124 39 8 80 41 92 72 9 25 10 25 102 19 113 -8 360 -37 367
-43 2 -2 -4 -19 -14 -36 -55 -93 -104 -246 -92 -290 10 -38 49 -56 141 -66
131 -15 167 -46 120 -103 -140 -170 -298 -281 -485 -339 -66 -21 -95 -24 -245
-24 -204 0 -251 10 -410 90 -265 133 -458 392 -505 678 -13 81 -13 245 1 326
35 218 172 443 354 584 119 91 288 165 428 188 77 12 233 2 322 -21z m145 -52
c0 -6 -57 -182 -126 -390 l-125 -378 -29 15 c-16 8 -31 18 -33 22 -3 5 16 62
43 128 26 66 91 231 144 368 64 160 103 247 112 247 8 0 14 -5 14 -12z m172
-84 c36 -25 95 -71 129 -103 l63 -58 -23 -204 c-34 -317 -41 -361 -62 -407
-18 -43 -20 -44 -56 -38 -21 3 -125 15 -232 28 -200 23 -221 30 -221 71 0 21
240 753 255 776 9 15 66 -10 147 -65z m636 -284 c97 -23 182 -58 182 -74 0
-14 -66 -255 -71 -260 -4 -4 -64 -9 -85 -7 -9 1 -124 330 -124 355 0 9 7 8 98
-14z m-113 -241 l46 -142 -43 -44 c-51 -52 -47 -60 -78 131 -21 125 -21 130
-4 162 10 19 22 34 26 34 4 0 28 -64 53 -141z m-116 -213 c1 -53 -2 -67 -11
-58 -14 14 -23 112 -13 149 l8 28 7 -25 c5 -14 8 -56 9 -94z"/>
</g>
</svg>
